<svg width="2000" height="2000" viewBox="0 0 2000 2000" fill="none" xmlns="http://www.w3.org/2000/svg">
<path d="M1416.67 1750C1462.5 1750 1501.72 1733.69 1534.33 1701.08C1567 1668.42 1583.33 1629.17 1583.33 1583.33V500C1606.94 500 1626.75 492.028 1642.75 476.083C1658.69 460.083 1666.67 440.278 1666.67 416.667C1666.67 393.056 1658.69 373.25 1642.75 357.25C1626.75 341.306 1606.94 333.333 1583.33 333.333H1250C1250 309.722 1242 289.917 1226 273.917C1210.06 257.972 1190.28 250 1166.67 250H833.334C809.723 250 789.917 257.972 773.917 273.917C757.973 289.917 750 309.722 750 333.333H416.667C393.056 333.333 373.278 341.306 357.334 357.25C341.334 373.25 333.334 393.056 333.334 416.667C333.334 440.278 341.334 460.083 357.334 476.083C373.278 492.028 393.056 500 416.667 500V1583.33C416.667 1629.17 432.973 1668.42 465.584 1701.08C498.25 1733.69 537.5 1750 583.334 1750H1416.67ZM1416.67 500V1583.33H583.334V500H1416.67ZM1000 1158.33L841.667 1316.67C825 1331.94 805.195 1339.58 782.25 1339.58C759.361 1339.58 740.278 1331.94 725 1316.67C708.334 1300 700 1280.19 700 1257.25C700 1234.36 708.334 1215.28 725 1200L883.334 1041.67L725 883.333C708.334 866.667 700 846.861 700 823.917C700 801.028 708.334 781.944 725 766.667C740.278 750 759.361 741.667 782.25 741.667C805.195 741.667 825 750 841.667 766.667L1000 925L1158.33 766.667C1173.61 750 1192.69 741.667 1215.58 741.667C1238.53 741.667 1258.33 750 1275 766.667C1290.28 781.944 1297.92 801.028 1297.92 823.917C1297.92 846.861 1290.28 866.667 1275 883.333L1116.67 1041.67L1275 1200C1290.28 1215.28 1297.92 1234.36 1297.92 1257.25C1297.92 1280.19 1290.28 1300 1275 1316.67C1258.33 1331.94 1238.53 1339.58 1215.58 1339.58C1192.69 1339.58 1173.61 1331.94 1158.33 1316.67L1000 1158.33Z" fill="white"/>
</svg>
