<svg width="1024" height="1024" viewBox="0 0 1024 1024" fill="none" xmlns="http://www.w3.org/2000/svg">
<path d="M685.248 104.704C697.246 116.706 703.986 132.982 703.986 149.952C703.986 166.923 697.246 183.198 685.248 195.2L368.448 512L685.248 828.8C696.906 840.871 703.357 857.037 703.211 873.818C703.065 890.598 696.335 906.65 684.469 918.517C672.602 930.383 656.55 937.113 639.77 937.259C622.989 937.405 606.823 930.954 594.752 919.296L232.704 557.248C220.706 545.246 213.966 528.971 213.966 512C213.966 495.03 220.706 478.754 232.704 466.752L594.752 104.704C606.754 92.706 623.03 85.9658 640 85.9658C656.971 85.9658 673.246 92.706 685.248 104.704Z" fill="black"/>
</svg>
