<svg width="40" height="40" viewBox="0 0 40 40" fill="none" xmlns="http://www.w3.org/2000/svg">
<path d="M1.26203 0C0.630452 0 0.0690485 0.514706 -0.00112696 1.17647C-0.0713024 1.83824 0.419926 2.42647 1.0515 2.57353L4.7708 3.60294L13.3322 25.4412L10.3147 27.9412C10.3147 27.9412 10.3147 27.9412 10.2445 28.0147C8.84098 29.1176 8.13923 30.8824 8.56028 32.5C8.56028 32.5 8.56028 32.5 8.56028 32.5735C9.05151 33.8235 9.89361 34.5588 10.8761 35C9.75326 35.2206 8.91116 36.3235 8.91116 37.5C8.91116 38.8971 10.034 40.0735 11.3673 40.0735C12.7006 40.0735 13.8234 38.8971 13.8234 37.5C13.8234 36.5441 13.3322 35.6618 12.5603 35.2206L33.4024 35.2941C32.7006 35.7353 32.2796 36.5441 32.2796 37.5C32.2796 38.8971 33.4024 40.0735 34.7357 40.0735C36.0691 40.0735 37.1919 38.8971 37.1919 37.5C37.1919 36.6176 36.7006 35.8088 36.0691 35.2941H37.8936C38.5252 35.2941 39.0866 34.7059 39.1568 34.0441C39.1568 33.3824 38.5954 32.7941 37.9638 32.7941L12.7006 32.7206H12.6305C11.9989 32.7941 11.5778 32.6471 11.3673 32.5C11.1568 32.3529 11.0164 32.1324 11.0164 31.9118C10.8761 31.4706 11.0866 30.6618 11.8585 30.0735L16.0691 26.6176L37.262 24.8529C37.8234 24.7794 38.3147 24.3382 38.3848 23.75L39.9989 9.33823C40.0691 8.97059 39.9287 8.60294 39.7182 8.38235C39.5077 8.16176 39.1568 7.94118 38.8059 7.94118L9.05151 7.13235L6.73572 1.98529C6.59537 1.54412 6.24449 1.25 5.82344 1.17647L1.40238 0C1.33221 0 1.33221 0 1.26203 0ZM9.96379 9.11765L13.8936 9.19118V13.6765H11.648L9.96379 9.11765ZM14.8059 9.26471L18.9462 9.33823V13.6765H14.8059V9.26471ZM23.8585 9.48529V13.75H19.7182V9.41177L23.8585 9.48529ZM24.7006 9.48529L28.841 9.55882V13.6765H24.7006V9.48529ZM33.8234 9.70588V13.6765H29.6831V9.55882L33.8234 9.70588ZM34.6656 9.77941L38.1041 9.85294L37.6831 13.75H34.6656V9.77941ZM37.6129 14.6324L37.1217 18.6765H34.6656V14.6324H37.6129ZM33.8234 18.6765H29.6831V14.6324H33.8234V18.6765ZM28.841 18.6765H24.7006V14.6324H28.841V18.6765ZM23.8585 18.6765H19.7182V14.6324H23.8585V18.6765ZM18.8761 18.6765H14.7357V14.6324H18.8761V18.6765ZM13.8936 18.6765H13.4726L11.9989 14.6324H13.8936V18.6765ZM37.0515 19.5588L36.7708 22.2794L34.7357 22.4265V19.5588H37.0515ZM33.8234 19.5588V22.5L29.6831 22.8676V19.5588H33.8234ZM28.841 22.9412L24.7006 23.3088V19.5588H28.841V22.9412ZM23.8585 19.5588V23.3824L19.7182 23.75V19.6324L23.8585 19.5588ZM18.8761 19.5588V23.75L15.8585 23.9706C15.7182 23.9706 15.648 24.0441 15.5076 24.0441L14.7357 21.9118V19.4853L18.8761 19.5588ZM13.8936 19.7059L13.8234 19.5588H13.8936V19.7059ZM36.2796 37.4265C36.2796 38.2353 35.648 38.9706 34.8059 38.9706C33.9638 38.9706 33.3322 38.3088 33.3322 37.4265C33.3322 36.6176 33.9638 35.8824 34.8059 35.8824C35.5778 35.8824 36.2796 36.6176 36.2796 37.4265ZM12.9112 37.4265C12.9112 38.2353 12.2796 38.9706 11.4375 38.9706C10.5954 38.9706 9.96379 38.3088 9.96379 37.4265C9.96379 36.6176 10.5954 35.8824 11.4375 35.8824C12.2796 35.8824 12.9112 36.6176 12.9112 37.4265ZM34.034 37.4265C34.034 37.8676 34.3848 38.2353 34.8059 38.2353C35.227 38.2353 35.5778 37.8676 35.5778 37.4265C35.5778 36.9853 35.227 36.6176 34.8059 36.6176C34.3848 36.6176 34.034 36.9853 34.034 37.4265ZM10.6655 37.4265C10.6655 37.8676 11.0164 38.2353 11.4375 38.2353C11.8585 38.2353 12.2094 37.8676 12.2094 37.4265C12.2094 36.9853 11.8585 36.6176 11.4375 36.6176C11.0164 36.6176 10.6655 36.9853 10.6655 37.4265Z" fill="#ff576d"/>
</svg>
